# xmcd
#
# Track frame offsets:
#	750
#	17809
#	31784
#	46755
#	64168
#	80062
#	94323
#	110064
#	124530
#	139185
#	155422
#	172796
#	190071
#	204033
#	218598
#	231809
#	251428
#	265584
#	284517
#	297539
#	321375
#
# Disc length: 4293 seconds
#
# Revision: 1
# Processed by: cddbd v1.5.2PL0 Copyright (c) Steve Scherf et al.
# Submitted via: EasyCDDAExtractor 2010.4.0.0
#
DISCID=2710bb15
DTITLE=Lasse Stefanz - Det Här Är Bara Början CD 2
DYEAR=2003
DGENRE=Dance
TTITLE0=01-Vid En Liten Fiskehamn
TTITLE1=02-Om Himlen and Österlen
TTITLE2=03-Nu Får Det Vara Slut
TTITLE3=04-Orden Som Mor Min Sa
TTITLE4=05-Jag Ber Dig Förlåt Mig
TTITLE5=06-Österlenvisan
TTITLE6=07-Felicita
TTITLE7=08-Etthundra Mil Från Dig
TTITLE8=09-En Kärleksaffär
TTITLE9=10-När Gässen Återvänder
TTITLE10=11-De Sista Ljuva Åren
TTITLE11=12-Cheerio
TTITLE12=13-Vägskäl
TTITLE13=14-Den Lilla Krogen Där Nere I Hamnen
TTITLE14=15-Rockin' and Reelin'
TTITLE15=16-Ur Hjärtat På En Vän
TTITLE16=17-Om Du Är Som Jag
TTITLE17=18-Sju Av Himlens Änglar
TTITLE18=19-City Girls
TTITLE19=20-Den Väg Som Jag Ska Gå
TTITLE20=DATA
EXTD=
EXTT0=
EXTT1=
EXTT2=
EXTT3=
EXTT4=
EXTT5=
EXTT6=
EXTT7=
EXTT8=
EXTT9=
EXTT10=
EXTT11=
EXTT12=
EXTT13=
EXTT14=
EXTT15=
EXTT16=
EXTT17=
EXTT18=
EXTT19=
EXTT20=
PLAYORDER=
